<svg width="153" height="16" fill="none" xmlns="http://www.w3.org/2000/svg"><path d="M1.183 2.77h7.124V12h-.91V3.576H2.08V12h-.897V2.77zm12.734 9.36a2.738 2.738 0 01-1.521-.429 3.559 3.559 0 01-1.053-1.105v4.173h-.884V5.227h.793V6.54a3.22 3.22 0 011.079-1.027 2.727 2.727 0 011.443-.403c.468 0 .897.1 1.287.299.39.19.728.45 1.014.78.286.32.507.693.663 1.118.164.425.247.862.247 1.313 0 .477-.074.927-.221 1.352-.148.425-.36.797-.637 1.118-.269.32-.594.576-.975.767a2.776 2.776 0 01-1.235.273zm-.247-.78c.364 0 .693-.078.988-.234.303-.156.559-.36.767-.611.216-.26.381-.55.494-.871a3.11 3.11 0 00.169-1.014 2.871 2.871 0 00-.728-1.911 2.509 2.509 0 00-.806-.598 2.231 2.231 0 00-.988-.221 2.02 2.02 0 00-.715.143 2.77 2.77 0 00-.69.364c-.207.147-.39.325-.545.533-.148.2-.239.412-.273.637v2.08c.104.243.234.468.39.676.164.208.346.39.546.546.208.147.429.264.663.351.234.087.476.13.728.13zm7.75.78a3.37 3.37 0 01-1.366-.273 3.49 3.49 0 01-1.066-.767 3.742 3.742 0 01-.715-1.131 3.744 3.744 0 01-.247-1.365c0-.477.083-.923.247-1.339a3.54 3.54 0 01.703-1.105 3.28 3.28 0 011.079-.754c.416-.19.866-.286 1.352-.286.494 0 .944.095 1.352.286.415.182.77.433 1.066.754a3.569 3.569 0 01.936 2.431v.208c0 .07-.005.117-.014.143H18.95c.026.364.108.702.247 1.014.147.303.333.568.559.793.225.225.48.403.767.533a2.435 2.435 0 001.585.091c.217-.06.416-.143.598-.247a2.33 2.33 0 00.495-.377c.147-.156.26-.325.337-.507l.767.208a2.336 2.336 0 01-.442.689c-.19.2-.411.377-.662.533-.252.147-.53.26-.832.338-.304.087-.62.13-.95.13zm2.495-3.874a2.6 2.6 0 00-.26-.988 2.523 2.523 0 00-.546-.78 2.321 2.321 0 00-.767-.507 2.338 2.338 0 00-.922-.182 2.474 2.474 0 00-1.716.689 2.648 2.648 0 00-.534.78c-.13.303-.208.633-.234.988h4.98zm1.265 2.977h.39a.958.958 0 00.494-.286c.148-.156.278-.39.39-.702a7.78 7.78 0 00.3-1.248c.086-.52.177-1.166.272-1.937l.208-1.833H31.2v6.006h.832v2.86h-.78V12h-5.33v2.093h-.74v-2.86zm5.161 0V5.929h-2.288l-.195 1.508c-.147 1.075-.307 1.915-.48 2.522-.165.607-.365 1.031-.599 1.274h3.562zm3.096-6.006h.871v2.405h1.47a2.7 2.7 0 01.883.143c.278.095.52.234.728.416.208.182.373.412.494.689.122.269.182.58.182.936 0 .355-.06.672-.182.949a1.95 1.95 0 01-.494.676c-.208.182-.45.32-.728.416a2.701 2.701 0 01-.884.143h-2.34V5.227zm5.473 0h.858V12h-.858V5.227zm-3.133 6.019c.45 0 .798-.126 1.04-.377.252-.26.377-.611.377-1.053 0-.442-.125-.789-.377-1.04-.251-.26-.598-.39-1.04-.39h-1.469v2.86h1.47zm5.209-.013h.39a.958.958 0 00.494-.286c.147-.156.277-.39.39-.702.113-.32.212-.737.299-1.248.087-.52.178-1.166.273-1.937l.208-1.833h3.965v6.006h.832v2.86h-.78V12h-5.33v2.093h-.741v-2.86zm5.161 0V5.929h-2.288l-.195 1.508c-.147 1.075-.308 1.915-.481 2.522-.165.607-.364 1.031-.598 1.274h3.562zm2.956 2.561c.13.121.26.204.39.247.13.043.269.065.416.065a.578.578 0 00.325-.104c.113-.06.22-.173.325-.338.113-.156.225-.368.338-.637.113-.269.238-.611.377-1.027l-2.951-6.773h.91l2.509 5.954 2.327-5.954h.845l-3.16 7.891a5.13 5.13 0 01-.402.845c-.13.225-.269.407-.416.546-.139.139-.29.234-.455.286a1.44 1.44 0 01-.52.091c-.39 0-.69-.104-.897-.312l.039-.78zm7.059-8.567h.87v6.006h2.549V5.227h.87v6.006H63V5.227h.87v6.006h1.132v2.86h-.767V12h-8.073V5.227zm11.744 6.903c-.32 0-.62-.052-.897-.156a2.452 2.452 0 01-.715-.455 2.102 2.102 0 01-.468-.663 2.07 2.07 0 01-.168-.832c0-.295.069-.568.207-.819.14-.251.334-.468.586-.65.25-.182.55-.32.897-.416a3.97 3.97 0 011.144-.156c.346 0 .697.03 1.052.091.356.06.672.147.95.26v-.611c0-.598-.17-1.07-.507-1.417-.338-.355-.806-.533-1.404-.533-.347 0-.703.07-1.067.208a5.142 5.142 0 00-1.105.598l-.311-.585c.875-.59 1.724-.884 2.547-.884.85 0 1.517.238 2.002.715.486.477.728 1.135.728 1.976v3.055c0 .243.109.364.326.364V12c-.148.026-.26.039-.338.039-.226 0-.403-.056-.533-.169a.648.648 0 01-.195-.468l-.026-.533c-.313.407-.707.72-1.184.936a3.575 3.575 0 01-1.52.325zm.209-.676c.459 0 .88-.087 1.26-.26.39-.173.685-.403.885-.689a.74.74 0 00.168-.247.637.637 0 00.066-.26V8.893a5.378 5.378 0 00-1.885-.351c-.624 0-1.131.13-1.521.39-.39.26-.585.602-.585 1.027 0 .208.038.403.117.585.086.182.199.342.337.481a1.743 1.743 0 001.158.429zm6.433-2.145a2.06 2.06 0 01-1.027-.663c-.269-.33-.403-.767-.403-1.313 0-.303.056-.585.17-.845a2.007 2.007 0 011.156-1.105c.278-.104.58-.156.91-.156h2.418V12h-.87V9.426h-1.47L73.716 12h-1l1.832-2.691zm2.353-.65V5.994h-1.508c-.182 0-.36.03-.533.091-.165.06-.312.152-.442.273a1.251 1.251 0 00-.429.975c0 .399.117.72.351.962.243.243.56.364.95.364h1.61z" fill="#fff"/><path d="M89 9h64" stroke="#fff"/></svg>