<svg width="24" height="16" fill="none" xmlns="http://www.w3.org/2000/svg"><path d="M12 7.462c.32 0 .579-.242.579-.539 0-.297-.26-.538-.579-.538-.32 0-.579.24-.579.538 0 .297.26.539.579.539z" stroke="#fff" stroke-opacity=".4" stroke-linecap="round" stroke-linejoin="round"/><path d="M12 12.846c2.878 0 5.21-2.17 5.21-4.846S14.878 3.154 12 3.154 6.79 5.324 6.79 8c0 2.677 2.332 4.846 5.21 4.846z" stroke="#fff" stroke-opacity=".4" stroke-linecap="round" stroke-linejoin="round"/><path d="M1 8s3.929-7 11-7 11 7 11 7-3.929 7-11 7S1 8 1 8z" stroke="#fff" stroke-opacity=".4" stroke-linecap="round" stroke-linejoin="round"/></svg>